<svg width="595" height="60" xmlns="http://www.w3.org/2000/svg">
	<style type="text/css">.st0{fill:#F5333F;}
		.st1{fill:#221F1F;}
		.st2{fill:#EE3741;}</style>
	<g>
		<title>Layer 1</title>
		<polygon id="svg_1" points="0,40.4 0,0 506.4,0 " class="st0"/>
		<g id="svg_2">
			<g id="svg_3">
				<path id="svg_4" d="m496.89999,54.5c-4.80002,-0.6 -8.80002,-1.7 -12.10001,-3.2c-3.10001,1.5 -7.20001,2.7 -12.29999,3.7c-0.20001,-0.5 -0.40002,-1.1 -0.90002,-1.7c4.5,-0.7 8.30002,-1.6 11.30002,-2.7c-2.39999,-1.3 -4.60001,-3.1 -6.80002,-5.4c-1.89999,3.2 -4.19998,5.9 -7,8.2c-0.29999,-0.5 -0.69998,-1 -1.09998,-1.6c3.89999,-2.8 6.79999,-6.8 8.89999,-12l-8.10001,0l0,-1.6l8.70001,0c0.29999,-1 0.59998,-2.1 0.89999,-3.1l1.69998,0.2c-0.19998,1 -0.5,2 -0.89999,2.9l18.5,0l0,1.6l-19.10001,0c-0.39999,1.1 -0.89999,2.2 -1.39999,3.2l16.80002,0l0,1.8c-2.10001,2.2 -4.60001,4.2 -7.30002,5.7c3,1 6.70001,1.8 11,2.3c-0.19998,0.2 -0.39999,0.7 -0.69998,1.3c0,0.2 -0.10001,0.3 -0.10001,0.4zm-27.19998,-22l19.29999,0c0.30002,-0.5 0.80002,-1.2 1.5,-2.2c0.80002,-1.3 1.40002,-2.2 1.90002,-2.7l1.5,0.8c-0.40002,0.6 -1,1.5 -1.90002,2.6c-0.5,0.7 -0.89999,1.2 -1.09998,1.6l5.89999,0l0,4.1l-1.60001,0l0,-2.7l-23.89999,0l0,2.6l-1.60001,0l0,-4.1zm26.79999,-6c-5.20001,0.2 -13.89999,0.6 -26.10001,0.9c-0.10001,-0.6 -0.19998,-1.2 -0.39999,-1.7c8.39999,0 17,-0.3 26,-0.9l0.5,1.7zm-23.10001,2.2l1.19998,-0.8c0.80002,1 1.60001,2.2 2.30002,3.4l-1.5,0.9c-0.30002,-0.5 -0.80002,-1.3 -1.39999,-2.3c-0.20001,-0.6 -0.39999,-0.9 -0.60001,-1.2zm18.60001,15.8l-14.20001,0c2.10001,2.2 4.40002,3.9 7.10001,5.2c2.80002,-1.4 5.10001,-3.1 7.10001,-5.2zm-10.10001,-16.3l1.39999,-0.6c0.10001,0.2 0.20001,0.4 0.5,0.8c0.70001,1.2 1.20001,2.2 1.60001,3l-1.5,0.8c-0.5,-1.4 -1.19998,-2.7 -2,-4z" class="st1"/>
				<path id="svg_5" d="m500.70001,28.2c0,-0.3 -0.10001,-0.9 -0.20001,-1.6c3.40002,-0.2 6.90002,-0.6 10.60001,-1.2l0.39999,1.7c-1.59998,0.2 -3.09998,0.4 -4.69998,0.5l0,6l4.79999,0l0,1.6l-4.79999,0l0,3.9l0.69998,-0.8c0.20001,0.2 0.60001,0.5 1.10001,1c1.5,1.4 2.5,2.3 3,2.9l-1.19998,1.2c-0.20001,-0.2 -0.70001,-0.7 -1.5,-1.4c-1,-1 -1.70001,-1.8 -2.10001,-2.2l0,15.2l-1.60001,0l0,-16.4c-1.10001,4.1 -2.70001,7.5 -4.70001,10.4c-0.19998,-0.7 -0.5,-1.3 -0.89999,-1.9c2.10001,-2.9 4,-6.9 5.60001,-11.8l-5.20001,0l0,-1.6l5.20001,0l0,-5.7c-0.5,0.1 -1.20001,0.1 -2.20001,0.1c-1,0 -1.79999,0.1 -2.29999,0.1zm10.09998,17l11.90002,-1.2l0,-20l1.59998,0l0,19.8l5.09998,-0.5l0.10004,1.7l-5.20001,0.5l0,9.3l-1.59998,0l0,-9.2l-11.80002,1.2l-0.10001,-1.6zm1.90002,-8.7l1.09998,-1.2c1.60004,1.4 3.30005,2.8 4.90002,4.3l-1.20001,1.3c-0.59998,-0.5 -1.39996,-1.2 -2.29999,-2.1c-1.10004,-1 -1.90002,-1.8 -2.5,-2.3zm1.79999,-7.8l1,-1.2c1.29999,0.9 3,2.4 5.20001,4.4l-1.20001,1.3c-1.79999,-1.7 -3.40002,-3.2 -5,-4.5z" class="st1"/>
				<path id="svg_6" d="m536.70001,48.9c1.09998,-0.7 2.70001,-2 4.79999,-3.9l0.20001,1.9c-1.59998,1.2 -3.20001,2.6 -5.09998,4.1c-0.20001,0.1 -0.70001,0.4 -1.20001,1l-1.20001,-1.3c0.59998,-0.7 0.90002,-1.6 0.90002,-2.9l0,-11.3l-3.90002,0l0,-1.7l5.59998,0l-0.09998,14.1l0,0zm1.5,-17.6c-0.29999,-0.4 -0.90002,-1.2 -1.90002,-2.2c-1.29999,-1.5 -2.19995,-2.5 -2.69995,-3.1l1.39996,-1c0.29999,0.4 0.90002,1.1 1.70001,1.9c1.59998,1.7 2.5,2.8 2.79999,3.2l-1.29999,1.2zm8.5,13.3l1.5,0.9c-1.90002,2.9 -4.20001,6 -7,9.2l-1.40002,-1.3c2.5,-2.5 4.79999,-5.5 6.90002,-8.8zm-3.79999,-18.4l16,0l0,15.6l-16,0l0,-15.6zm1.69995,1.7l0,12.3l12.70001,0l0,-12.3l-12.70001,0zm8.5,17.7l1.40002,-0.9c2.39996,3 4.59998,5.9 6.69995,8.7l-1.5,1.2c-1.69995,-2.4 -3.79993,-5.3 -6.59998,-9z" class="st2"/>
			</g>
		</g>
	</g>
</svg>
