<svg width="595" height="60" xmlns="http://www.w3.org/2000/svg">
	<style type="text/css">.st0{fill:#F5333F;}</style>
	<g>
		<title>Layer 1</title>
		<polygon id="svg_1" points="0,40 0,0 505,0 " class="st0"/>
		<g id="svg_2">
			<path id="svg_3" d="m475.62,42.13l-0.10999,0l-2.52002,12.81l-1.63998,0l2.89999,-14.18l-2.89999,-13.31l1.97,0l2.19,11.55l0.10999,0l2.30002,-11.55l1.63998,0l-2.73999,13.31l3.00998,14.18l-1.97,0l-2.23999,-12.81z"/>
			<path id="svg_4" d="m490.95001,45.74l0,6.13c0,1.86 -0.92999,3.29 -3.5,3.29c-2.63,0 -3.56,-1.42 -3.56,-3.29l0,-21.35c0,-2.03 0.92999,-3.29 3.56,-3.29c2.57001,0 3.5,1.26 3.5,3.29l0,5.53l-1.97,0l0,-5.31c0,-1.1 -0.26999,-1.86 -1.53,-1.86c-1.26001,0 -1.59,0.77 -1.59,1.86l0,21.19c0,0.82 0.32999,1.59 1.59,1.59c1.26001,0 1.53,-0.77 1.53,-1.48l0,-6.3l1.97,0z"/>
			<path id="svg_5" d="m496.04001,35.28l0,-5.26c0,-2.14 1.53,-2.79 3.78,-2.79c2.14001,0 3.61002,0.66 3.61002,2.79l0,24.92l-1.97,0l0,-1.37l-0.11002,0c-0.38,0.82 -0.98999,1.59 -2.57001,1.59c-1.47998,0 -2.73999,-0.55 -2.73999,-2.46l0,-10.46c0,-2.41 1.04001,-3.83 4.54999,-3.83l0.88,0l0,-7.94c0,-0.88 -0.38,-1.59 -1.63998,-1.59c-1.42001,0 -1.81,0.71 -1.81,1.59l0,4.82l-1.98001,0l0,-0.01zm1.97998,16.98c0,0.77 0.38,1.26 1.48001,1.26c1.14999,0 1.97,-1.31 1.97,-3.01l0,-10.46l-0.55002,0c-1.85999,0 -2.89999,0.44 -2.89999,2.52l0,9.69z"/>
			<path id="svg_6" d="m509.07999,15.41l1.97,0l0,39.54l-1.97,0l0,-39.54z"/>
			<path id="svg_7" d="m518.28003,45.8l0,6.08c0,1.1 0.65997,1.64 1.64001,1.64c0.92999,0 1.58997,-0.55 1.58997,-1.64l0,-4.71c0,-1.48 -0.04999,-2.52 -0.65997,-3.5l-3.22998,-5.31l-0.60004,-1.04c-0.54999,-0.99 -0.70996,-1.81 -0.70996,-3.12l0,-3.9c0,-1.7 1.14996,-3.07 3.56,-3.07c2.40997,0 3.5,1.15 3.5,3.18l0,4.76l-1.97003,0l0,-4.44c0,-1.1 -0.38,-1.86 -1.52997,-1.86c-1.20001,0 -1.59003,0.77 -1.59003,1.86l0,3.72c0,0.93 0.15997,1.81 0.77002,2.74l0.98999,1.64l2.57001,4.05c0.65997,1.1 0.88,2.14 0.88,3.56l0,5.48c0,1.97 -1.31,3.23 -3.67004,3.23c-2.07996,0 -3.5,-1.04 -3.5,-2.9l0,-6.45l1.96002,0z" class="st0"/>
			<path id="svg_8" d="m535.25,45.74l0,6.13c0,1.86 -0.92999,3.29 -3.5,3.29c-2.63,0 -3.56,-1.42 -3.56,-3.29l0,-21.35c0,-2.03 0.92999,-3.29 3.56,-3.29c2.57001,0 3.5,1.26 3.5,3.29l0,5.53l-1.96997,0l0,-5.31c0,-1.1 -0.27002,-1.86 -1.53003,-1.86c-1.26001,0 -1.59003,0.77 -1.59003,1.86l0,21.19c0,0.82 0.33002,1.59 1.59003,1.59c1.26001,0 1.53003,-0.77 1.53003,-1.48l0,-6.3l1.96997,0z" class="st0"/>
			<path id="svg_9" d="m540.34003,35.28l0,-5.26c0,-2.14 1.53003,-2.79 3.78003,-2.79c2.13995,0 3.60999,0.66 3.60999,2.79l0,24.92l-1.97003,0l0,-1.37l-0.10999,0c-0.38,0.82 -0.98999,1.59 -2.57001,1.59c-1.47998,0 -2.73999,-0.55 -2.73999,-2.46l0,-10.46c0,-2.41 1.03998,-3.83 4.53998,-3.83l0.88,0l0,-7.94c0,-0.88 -0.38,-1.59 -1.63995,-1.59c-1.42004,0 -1.81,0.71 -1.81,1.59l0,4.82l-1.97003,0l0,-0.01zm1.97998,16.98c0,0.77 0.38,1.26 1.47998,1.26c1.15002,0 1.97003,-1.31 1.97003,-3.01l0,-10.46l-0.54999,0c-1.86005,0 -2.90002,0.44 -2.90002,2.52l0,9.69z" class="st0"/>
			<path id="svg_10" d="m553.59998,27.45l1.97003,0l0,1.48l0.10999,0c0.33002,-0.71 1.31,-1.7 2.57001,-1.7c1.85999,0 2.89996,0.77 2.89996,3.23l0,24.48l-1.96997,0l0,-23.76c0,-1.75 -0.48999,-2.3 -1.64001,-2.3c-0.88,0 -1.96997,0.99 -1.96997,3.01l0,23.05l-1.97003,0l0,-27.49z" class="st0"/>
		</g>
	</g>
</svg>
