<svg width="48.3" height="30.7" xmlns="http://www.w3.org/2000/svg">
	<style type="text/css">.st0{fill:#F5831F;}
		.st1{fill:none;stroke:#C7C8C9;stroke-width:0.8123;stroke-miterlimit:10;}</style>

	<g>
		<title>background</title>
		<rect fill="none" id="canvas_background" height="32.7" width="50.3" y="-1" x="-1"/>
	</g>
	<g>
		<title>Layer 1</title>
		<g id="svg_1">
			<g id="svg_2">
				<path id="svg_3" d="m11.6,9.7l0,-5.5c0,-0.1 0,-0.1 0.1,-0.1l0.7,0c0,0 0.1,0 0.1,0.1l0.8,1.8l0,0l0.8,-1.8c0,-0.1 0.1,-0.1 0.1,-0.1l0.7,0c0.1,0 0.1,0 0.1,0.1l0,5.5c0,0.1 0,0.1 -0.1,0.1l-0.7,0c-0.1,0 -0.1,0 -0.1,-0.1l0,-3.5l0,0l-0.7,1.4c0,0 0,0.1 -0.1,0.1c0,0 0,0 -0.1,-0.1l-0.7,-1.4l0,0l0,3.5c0,0.1 0,0.1 -0.1,0.1l-0.8,-0.1c0.1,0.1 0,0.1 0,0z" class="st0"/>
				<path id="svg_4" d="m19.5,4.9l-1.8,0l0,0l0,1.5l0,0l1,0c0.1,0 0.1,0 0.1,0.1l0,0.6c0,0.1 0,0.1 -0.1,0.1l-1,0l0,0l0,1.5l0,0l1.8,0c0.1,0 0.1,0 0.1,0.1l0,0.6c0,0.1 0,0.1 -0.1,0.1l-2.6,0c-0.1,0 -0.1,0 -0.1,-0.1l0,-5.5c0,-0.1 0,-0.1 0.1,-0.1l2.6,0c0.1,0 0.1,0 0.1,0.1l-0.1,1c0.1,0 0.1,0 0,0z" class="st0"/>
				<path id="svg_5" d="m21.1,9.7l0,-5.5c0,-0.1 0,-0.1 0.1,-0.1l1.4,0c0.9,0 1.5,0.6 1.5,1.6l0,2.6c0,0.9 -0.6,1.6 -1.5,1.6l-1.5,-0.2c0.1,0.1 0,0.1 0,0zm1,-0.7l0.5,0c0.4,0 0.6,-0.3 0.6,-0.8l0,-2.5c0,-0.5 -0.2,-0.8 -0.6,-0.8l-0.5,0l0,0l0,4.1l0,0z" class="st0"/>
				<path id="svg_6" d="m25.8,9.7l0,-5.5c0,-0.1 0,-0.1 0.1,-0.1l0.7,0c0.1,0 0.1,0 0.1,0.1l0,5.5c0,0.1 0,0.1 -0.1,0.1l-0.8,-0.1c0,0.1 0,0.1 0,0z" class="st0"/>
				<path id="svg_7" d="m28.4,8.2l0,-4c0,-0.1 0,-0.1 0.1,-0.1l0.7,0c0.1,0 0.1,0 0.1,0.1l0,4.1c0,0.4 0.2,0.7 0.6,0.7s0.6,-0.3 0.6,-0.7l0,-4.1c0,-0.1 0,-0.1 0.1,-0.1l0.7,0c0.1,0 0.1,0 0.1,0.1l0,4c0,1 -0.6,1.6 -1.5,1.6c-0.9,0.1 -1.5,-0.6 -1.5,-1.6z" class="st0"/>
				<path id="svg_8" d="m33.1,9.7l0,-5.5c0,-0.1 0,-0.1 0.1,-0.1l0.7,0c0,0 0.1,0 0.1,0.1l0.8,1.8l0,0l0.8,-1.8c0,-0.1 0.1,-0.1 0.1,-0.1l0.7,0c0.1,0 0.1,0 0.1,0.1l0,5.5c0,0.1 0,0.1 -0.1,0.1l-0.7,0c-0.1,0 -0.1,0 -0.1,-0.1l0,-3.5l0,0l-0.7,1.4c0,0 0,0.1 -0.1,0.1c0,0 0,0 -0.1,-0.1l-0.7,-1.4l0,0l0,3.5c0,0.1 0,0.1 -0.1,0.1l-0.8,-0.1c0,0.1 0,0.1 0,0z" class="st0"/>
			</g>
		</g>
		<path id="svg_9" d="m39.1,0.4l-29.9,0c-4.8,0 -8.8,3.9 -8.8,8.8c0,4.8 3.9,8.8 8.8,8.8l29.9,0c4.8,0 8.8,-3.9 8.8,-8.8c0,-4.8 -4,-8.8 -8.8,-8.8z" class="st1"/>
		<path id="svg_10" d="m39.1,13.1l-29.9,0c-4.8,0 -8.8,3.9 -8.8,8.8c0,4.8 3.9,8.8 8.8,8.8l29.9,0c4.8,0 8.8,-3.9 8.8,-8.8c0,-4.8 -4,-8.8 -8.8,-8.8z" class="st0"/>
	</g>
</svg>
