<svg width="48.3" height="30.7" xmlns="http://www.w3.org/2000/svg">
	<style type="text/css">.st0{fill:#EF3942;}
		.st1{fill:none;stroke:#C7C8C9;stroke-width:0.8123;stroke-miterlimit:10;}</style>
	<g>
		<title>Layer 1</title>
		<g id="svg_1">
			<path id="svg_2" d="m18.9,4l0.7,0c0.1,0 0.1,0 0.1,0.1l0,5.5c0,0.1 0,0.1 -0.1,0.1l-0.7,0c-0.1,0 -0.1,0 -0.1,-0.1l0,-2.3l0,0l-1,0l0,0l0,2.3c0,0.1 0,0.1 -0.1,0.1l-0.9,0c-0.1,0 -0.1,0 -0.1,-0.1l0,-5.5c0,-0.1 0,-0.1 0.1,-0.1l0.7,0c0.1,0 0.1,0 0.1,0.1l0,2.3l0,0l1,0l0,0l0.3,-2.4c-0.1,0.1 -0.1,0 0,0z" class="st0"/>
			<path id="svg_3" d="m21.4,9.6l0,-5.5c0,-0.1 0,-0.1 0.1,-0.1l0.7,0c0.1,0 0.1,0 0.1,0.1l0,5.5c0,0.1 0,0.1 -0.1,0.1l-0.8,-0.1c0.1,0.1 0,0.1 0,0z" class="st0"/>
			<path id="svg_4" d="m24,8.3l0,-2.9c0,-0.9 0.6,-1.5 1.5,-1.5s1.5,0.6 1.5,1.5l0,0.3c0,0.1 0,0.1 -0.1,0.1l-0.7,0c-0.1,0 -0.1,0 -0.1,-0.1l0,-0.3c0,-0.4 -0.2,-0.6 -0.6,-0.6s-0.6,0.3 -0.6,0.6l0,2.9c0,0.4 0.2,0.6 0.6,0.6s0.6,-0.3 0.6,-0.6l0,-0.8l0,0l-0.5,0c-0.1,0 -0.1,0 -0.1,-0.1l0,-0.6c0,-0.1 0,-0.1 0.1,-0.1l1.4,0c0.1,0 0.1,0 0.1,0.1l0,1.5c0,0.9 -0.6,1.5 -1.5,1.5c-1,0 -1.6,-0.6 -1.6,-1.5z" class="st0"/>
			<path id="svg_5" d="m30.7,4l0.7,0c0.1,0 0.1,0 0.1,0.1l0,5.5c0,0.1 0,0.1 -0.1,0.1l-0.7,0c-0.1,0 -0.1,0 -0.1,-0.1l0,-2.3l0,0l-1,0l0,0l0,2.3c0,0.1 0,0.1 -0.1,0.1l-0.7,0c-0.1,0 -0.1,0 -0.1,-0.1l0,-5.5c0,-0.1 0,-0.1 0.1,-0.1l0.7,0c0.1,0 0.1,0 0.1,0.1l0,2.3l0,0l1,0l0,0l0.1,-2.4c-0.1,0.1 0,0 0,0z" class="st0"/>
		</g>
		<path id="svg_6" d="m39.1,0.4l-29.9,0c-4.8,0 -8.8,3.9 -8.8,8.8c0,4.8 3.9,8.8 8.8,8.8l29.9,0c4.8,0 8.8,-3.9 8.8,-8.8c0,-4.8 -3.9,-8.8 -8.8,-8.8z" class="st1"/>
		<path id="svg_7" d="m39.1,13.1l-29.9,0c-4.8,0 -8.8,3.9 -8.8,8.8c0,4.8 3.9,8.8 8.8,8.8l29.9,0c4.8,0 8.8,-3.9 8.8,-8.8c0,-4.8 -3.9,-8.8 -8.8,-8.8z" class="st0"/>
	</g>
</svg>
