<svg width="48.3" height="30.7" xmlns="http://www.w3.org/2000/svg">
  <style type="text/css">.st0{fill:none;stroke:#C7C8CA;stroke-width:0.8123;stroke-miterlimit:10;}
    .st1{fill:#00AEE6;}</style>
  <g>
    <title>Layer 1</title>
    <path id="svg_1" d="m39.1,0.4l-29.9,0c-4.8,0 -8.8,3.9 -8.8,8.8c0,4.8 3.9,8.8 8.8,8.8l29.9,0c4.8,0 8.8,-3.9 8.8,-8.8c0,-4.8 -3.9,-8.8 -8.8,-8.8z" class="st0"/>
    <path id="svg_2" d="m39.1,13.1l-29.9,0c-4.8,0 -8.8,3.9 -8.8,8.8c0,4.8 3.9,8.8 8.8,8.8l29.9,0c4.8,0 8.8,-3.9 8.8,-8.8c0,-4.8 -3.9,-8.8 -8.8,-8.8z" class="st1"/>
    <g id="svg_3">
      <path id="svg_4" d="m20.7,6c-0.4,0.6 -0.7,1.2 -1.1,1.6c-0.1,-0.2 -0.2,-0.5 -0.3,-0.6c0.9,-1 1.8,-2.8 2.4,-4.5l0.8,0.3c0,0.1 -0.1,0.1 -0.2,0.1c-0.2,0.7 -0.5,1.3 -0.8,2l0.2,0.1c0,0.1 -0.1,0.1 -0.2,0.1l0,6.7l-0.7,0l0,-5.8l-0.1,0zm8.1,0.6l-2.3,0c0.3,2.2 0.9,4 1.6,4c0.2,0 0.3,-0.4 0.4,-1.4c0.1,0.1 0.4,0.3 0.5,0.3c-0.1,1.3 -0.4,1.7 -1,1.7c-1.1,0 -1.9,-2.1 -2.2,-4.7l-2.3,0l0,2.7c0.8,-0.1 1.6,-0.3 2.5,-0.4l0,0.6c-1.3,0.3 -2.6,0.5 -3.4,0.7c0,0.1 -0.1,0.1 -0.1,0.1l-0.3,-0.8c0.2,0 0.4,-0.1 0.7,-0.1l0,-5.8l0.4,0.1c1.6,-0.2 3.5,-0.5 4.6,-0.9l0.6,0.5c0,0 -0.1,0 -0.1,0c0,0 -0.1,0 -0.1,0c-0.5,0.1 -1.1,0.3 -1.7,0.4c0,0 -0.1,0.1 -0.2,0.1c0,0.7 0.1,1.5 0.1,2.2l2.4,0l0,0.7l-0.1,0zm-6.4,4.9l0,-0.6l4.4,0l0,0.6l-4.4,0zm1,-5.5l2.3,0c-0.1,-0.7 -0.1,-1.4 -0.1,-2.1c-0.7,0.1 -1.4,0.2 -2.1,0.3l0,1.8l-0.1,0z" class="st1"/>
    </g>
  </g>
</svg>
