<svg width="48.3" height="30.7" xmlns="http://www.w3.org/2000/svg">
	<style type="text/css">.st0{fill:#00AEE6;}
		.st1{fill:none;stroke:#C7C8CA;stroke-width:0.8123;stroke-miterlimit:10;}</style>

	<g>
		<title>background</title>
		<rect fill="none" id="canvas_background" height="32.7" width="50.3" y="-1" x="-1"/>
	</g>
	<g>
		<title>Layer 1</title>
		<g id="svg_1">
			<g id="svg_2">
				<path id="svg_3" d="m16.1,9.7l0,-5.5c0,-0.1 0,-0.1 0.1,-0.1l0.7,0c0.1,0 0.1,0 0.1,0.1l0,4.7l0,0l1.8,0c0.1,0 0.1,0 0.1,0.1l0,0.6c0,0.1 0,0.1 -0.1,0.1l-2.7,0c0,0.1 0,0.1 0,0z" class="st0"/>
				<path id="svg_4" d="m20.1,8.3l0,-2.7c0,-0.9 0.6,-1.5 1.6,-1.5s1.6,0.6 1.6,1.5l0,2.7c0,0.9 -0.6,1.5 -1.6,1.5s-1.6,-0.5 -1.6,-1.5zm2.2,0.1l0,-2.8c0,-0.4 -0.2,-0.7 -0.6,-0.7s-0.6,0.3 -0.6,0.7l0,2.8c0,0.4 0.2,0.7 0.6,0.7s0.6,-0.3 0.6,-0.7z" class="st0"/>
				<path id="svg_5" d="m25.6,9.7l-1.1,-5.5c0,-0.1 0,-0.1 0.1,-0.1l0.8,0c0.1,0 0.1,0 0.1,0.1l0.6,3.4l0,0l0.5,-3.4c0,-0.1 0,-0.1 0.1,-0.1l0.6,0c0.1,0 0.1,0 0.1,0.1l0.6,3.4l0,0l0.5,-3.4c0,-0.1 0,-0.1 0.1,-0.1l0.8,0c0.1,0 0.1,0 0.1,0.1l-1,5.5c0,0.1 0,0.1 -0.1,0.1l-0.7,0c-0.1,0 -0.1,0 -0.1,-0.1l-0.5,-3.5l0,0l-0.5,3.5c0,0.1 0,0.1 -0.1,0.1l-0.7,0c-0.2,0 -0.2,0 -0.2,-0.1z" class="st0"/>
			</g>
		</g>
		<path id="svg_6" d="m39.1,0.4l-29.9,0c-4.8,0 -8.8,3.9 -8.8,8.8c0,4.8 3.9,8.8 8.8,8.8l29.9,0c4.8,0 8.8,-3.9 8.8,-8.8c0,-4.8 -3.9,-8.8 -8.8,-8.8z" class="st1"/>
		<path id="svg_7" d="m39.1,13.1l-29.9,0c-4.8,0 -8.8,3.9 -8.8,8.8c0,4.8 3.9,8.8 8.8,8.8l29.9,0c4.8,0 8.8,-3.9 8.8,-8.8c0,-4.8 -3.9,-8.8 -8.8,-8.8z" class="st0"/>
	</g>
</svg>
