<svg width="48.3" height="30.7" xmlns="http://www.w3.org/2000/svg">
  <style type="text/css">.st0{fill:none;stroke:#C7C8C9;stroke-width:0.8123;stroke-miterlimit:10;}
    .st1{fill:#EF3942;}</style>
  <g>
    <title>Layer 1</title>
    <path id="svg_1" d="m39.1,0.4l-29.9,0c-4.8,0 -8.8,3.9 -8.8,8.8c0,4.8 3.9,8.8 8.8,8.8l29.9,0c4.8,0 8.8,-3.9 8.8,-8.8c0,-4.8 -3.9,-8.8 -8.8,-8.8z" class="st0"/>
    <path id="svg_2" d="m39.1,13.1l-29.9,0c-4.8,0 -8.8,3.9 -8.8,8.8c0,4.8 3.9,8.8 8.8,8.8l29.9,0c4.8,0 8.8,-3.9 8.8,-8.8c0,-4.8 -3.9,-8.8 -8.8,-8.8z" class="st1"/>
    <g id="svg_3">
      <path id="svg_4" d="m24.4,3.3l4.1,0l0,0.6l-8.8,0l0,-0.6l4,0l0,-1l0.9,0.1c0,0.1 -0.1,0.1 -0.2,0.1l0,0.8zm3.7,4l0,3.5c0,0.4 -0.1,0.6 -0.4,0.7c-0.3,0.1 -0.9,0.1 -1.7,0.1c0,-0.2 -0.1,-0.4 -0.2,-0.6c0.4,0 0.8,0 1,0c0.6,0 0.6,0 0.6,-0.2l0,-2.9l-6.6,0l0,3.8l-0.7,0l0,-4.4l8,0zm-6.7,-2.8l5.4,0l0,2.1l-5.4,0l0,-2.1zm4.8,1.6l0,-1.1l-4.1,0l0,1l4.1,0l0,0.1zm-0.1,4.6l-3.3,0l0,0.5l-0.6,0l0,-2.7l3.9,0l0,2.2zm-0.6,-1.6l-2.6,0l0,1.1l2.6,0l0,-1.1z" class="st1"/>
    </g>
  </g>
</svg>
