<svg width="48.3" height="30.7" xmlns="http://www.w3.org/2000/svg">
  <style type="text/css">.st0{fill:none;stroke:#C7C8C9;stroke-width:0.8123;stroke-miterlimit:10;}
    .st1{fill:#F5831F;}</style>
  <g>
    <title>Layer 1</title>
    <path id="svg_1" d="m39.1,0.4l-29.9,0c-4.8,0 -8.8,3.9 -8.8,8.8c0,4.8 3.9,8.8 8.8,8.8l29.9,0c4.8,0 8.8,-3.9 8.8,-8.8c0,-4.8 -4,-8.8 -8.8,-8.8z" class="st0"/>
    <path id="svg_2" d="m39.1,13.1l-29.9,0c-4.8,0 -8.8,3.9 -8.8,8.8c0,4.8 3.9,8.8 8.8,8.8l29.9,0c4.8,0 8.8,-3.9 8.8,-8.8c0,-4.8 -4,-8.8 -8.8,-8.8z" class="st1"/>
    <g id="svg_3">
      <path id="svg_4" d="m24.5,4.3l3.7,0l0,4.7l-0.7,0l0,-0.6l-3,0l0,3.3l-0.7,0l0,-3.3l-3,0l0,0.6l-0.7,0l0,-4.7l3.7,0l0,-1.9l0.9,0.1c0,0.1 -0.1,0.1 -0.2,0.1l0,1.7zm-3.8,3.4l3,0l0,-2.8l-3,0l0,2.8zm3.8,0l3,0l0,-2.8l-3,0l0,2.8z" class="st1"/>
    </g>
  </g>
</svg>
