<svg xmlns="http://www.w3.org/2000/svg" width="85" height="50">
 <style type="text/css">.st0{fill:#F5831F;}
	.st1{fill:#15ADE4;}
	.st2{fill:#EF3942;}
	.st3{fill:#50575A;}</style>
 <g>
  <title>Layer 1</title>
  <g id="svg_1">
   <path id="svg_2" d="m64,9.6c-6.5,-4 -14,-6.2 -21.799999,-6.2c-7.600002,0 -14.800001,2 -21.200001,5.8l1.200001,1.8c6,-3.5 12.799999,-5.4 19.899998,-5.4c7.300003,0 14.400002,2 20.5,5.8l1.400002,-1.799999z" class="st0"/>
   <path id="svg_3" d="m20.5,9.6c-2.700001,1.7 -5.3,3.7 -7.6,6c-8.5,8.5 -11.9,20.300001 -12.1,30.999998l2.1,0c0.2,-10.099998 2.9,-20.899998 11.5,-29.399998c2.200001,-2.200001 4.700001,-4.200001 7.300001,-5.800001l-1.200001,-1.799999z" class="st1"/>
   <path id="svg_4" d="m71.5,15.6c-2.099998,-2.1 -4.5,-4 -7,-5.6l-1.299999,1.7c2.399998,1.5 4.700001,3.3 6.799999,5.400001c8,8 11.199997,19.300001 11.5,29.4l2.099998,0c-0.199997,-10.700001 -3.599998,-22.4 -12.099998,-30.9z" class="st2"/>
  </g>
  <g id="svg_5">
   <path id="svg_6" d="m44.900002,40c-1.100002,-0.799999 -2.700001,-0.700001 -3.5,0.5s-0.700001,2.700001 0.5,3.5c1.099998,0.799999 2.699997,0.700001 3.5,-0.5c0.799999,-1.099998 0.5,-2.700001 -0.5,-3.5zm-2.300003,2.799999c-0.5,-0.399998 -0.599998,-1.200001 -0.199997,-1.700001s1.199997,-0.599998 1.699997,-0.199997c0.5,0.399998 0.600002,1.199997 0.200001,1.699997c-0.5,0.600002 -1.200001,0.700001 -1.700001,0.200001z" class="st3"/>
   <g id="svg_7">
    <path id="svg_8" d="m45.799999,42l23.899998,-12.9l-24.799995,10.9c0.599998,0.5 0.899998,1.200001 0.899998,2z" class="st3"/>
    <path id="svg_9" d="m40.799999,41.799999l-4.899998,2.100002l1.299999,1.099998l-0.100002,1.700001l4.800003,-2.700001c0,-0.099998 -0.100002,-0.099998 -0.200001,-0.099998c-0.600002,-0.5 -0.900002,-1.400002 -0.900002,-2.100002z" class="st3"/>
   </g>
  </g>
  <g id="svg_10">
   <rect id="svg_11" height="6.6" width="0.6" class="st3" y="7.9" x="41.9"/>
   <rect id="svg_12" height="0.6" width="6.6" class="st3" y="44.2" x="5.1"/>
   <rect id="svg_13" height="0.6" width="6.6" class="st3" y="44.2" x="72.6"/>
   <g id="svg_14">
    <rect id="svg_15" height="2.5" width="0.6" class="st3" transform="matrix(0.9945 -0.1045 0.1045 0.9945 -0.7652 4.0773)" y="8.1" x="38.2"/>
    <rect id="svg_16" height="2.5" width="0.6" class="st3" transform="matrix(0.9782 -0.2076 0.2076 0.9782 -1.3075 7.4256)" y="8.7" x="34.4"/>
    <rect id="svg_17" height="2.5" width="0.6" class="st3" transform="matrix(0.9512 -0.3087 0.3087 0.9512 -1.8584 10.1441)" y="9.7" x="30.8"/>
    <rect id="svg_18" height="2.5" width="0.6" class="st3" transform="matrix(0.9138 -0.4062 0.4062 0.9138 -2.5904 12.2767)" y="11" x="27.3"/>
   </g>
   <g id="svg_19">
    <rect id="svg_20" height="0.6" width="2.5" class="st3" transform="matrix(0.1055 -0.9944 0.9944 0.1055 31.9266 54.1501)" y="9" x="44.8"/>
    <rect id="svg_21" height="0.6" width="2.5" class="st3" transform="matrix(0.2071 -0.9783 0.9783 0.2071 29.6804 56.5017)" y="9.6" x="48.4"/>
    <rect id="svg_22" height="0.6" width="2.5" class="st3" transform="matrix(0.3087 -0.9512 0.9512 0.3087 26.4241 58.3198)" y="10.7" x="52.1"/>
    <rect id="svg_23" height="0.6" width="2.5" class="st3" transform="matrix(0.4063 -0.9137 0.9137 0.4063 22.509 59.2149)" y="12" x="55.6"/>
   </g>
   <g id="svg_24">
    <polygon id="svg_25" points="76.7,41.7 76.6,41.1 79.1,40.9 79.2,41.5   " class="st3"/>
    <rect id="svg_26" height="0.6" width="2.5" class="st3" transform="matrix(0.9784 -0.2068 0.2068 0.9784 -6.1012 16.8146)" y="37.3" x="76.1"/>
    <rect id="svg_27" height="0.6" width="2.5" class="st3" transform="matrix(0.9512 -0.3087 0.3087 0.9512 -6.7638 25.2392)" y="33.7" x="75.1"/>
    <rect id="svg_28" height="0.6" width="2.5" class="st3" transform="matrix(0.9139 -0.4059 0.4059 0.9139 -5.9263 33.0577)" y="30.2" x="73.7"/>
   </g>
   <g id="svg_29">
    <rect id="svg_30" height="2.5" width="0.6" class="st3" transform="matrix(0.8148 -0.5798 0.5798 0.8148 -5.1481 15.3301)" y="14.5" x="21.1"/>
    <rect id="svg_31" height="2.5" width="0.6" class="st3" transform="matrix(0.7498 -0.6617 0.6617 0.7498 -7.409 16.726)" y="16.9" x="18.1"/>
    <rect id="svg_32" height="2.5" width="0.6" class="st3" transform="matrix(0.6765 -0.7364 0.7364 0.6765 -10.1344 18.3546)" y="19.5" x="15.5"/>
    <rect id="svg_33" height="2.5" width="0.6" class="st3" transform="matrix(0.5962 -0.8029 0.8029 0.5962 -13.5358 20.3154)" y="22.4" x="13.1"/>
   </g>
   <g id="svg_34">
    <rect id="svg_35" height="0.6" width="2.5" class="st3" transform="matrix(0.8144 -0.5803 0.5803 0.8144 -0.7669 45.9605)" y="23.9" x="70.2"/>
    <rect id="svg_36" height="0.6" width="2.5" class="st3" transform="matrix(0.7496 -0.6619 0.6619 0.7496 3.2367 51.1251)" y="21" x="67.9"/>
    <rect id="svg_37" height="0.6" width="2.5" class="st3" transform="matrix(0.6762 -0.7368 0.7368 0.6762 7.8174 54.99)" y="18.3" x="65.2"/>
    <rect id="svg_38" height="0.6" width="2.5" class="st3" transform="matrix(0.596 -0.803 0.803 0.596 12.6619 57.5726)" y="15.9" x="62.3"/>
    <rect id="svg_39" height="2.5" width="0.6" class="st3" transform="matrix(0.8646 -0.5025 0.5025 0.8646 -3.7359 14.2323)" y="12.8" x="24.2"/>
    <rect id="svg_40" height="0.6" width="2.5" class="st3" transform="matrix(0.8648 -0.5021 0.5021 0.8648 -3.6088 40.5914)" y="26.7" x="72.3"/>
    <rect id="svg_41" height="2.5" width="0.6" class="st3" transform="matrix(0.506 -0.8625 0.8625 0.506 -17.4721 23.2386)" y="25.6" x="11.3"/>
    <rect id="svg_42" height="0.6" width="2.5" class="st3" transform="matrix(0.5059 -0.8626 0.8626 0.5059 17.7914 59.3353)" y="13.8" x="59.4"/>
   </g>
   <g id="svg_43">
    <polygon id="svg_44" points="7.7,41.7 5.2,41.5 5.3,40.9 7.8,41.1   " class="st3"/>
    <rect id="svg_45" height="2.5" width="0.6" class="st3" transform="matrix(0.2077 -0.9782 0.9782 0.2077 -31.1055 36.6312)" y="36.3" x="6.8"/>
    <rect id="svg_46" height="2.5" width="0.6" class="st3" transform="matrix(0.3087 -0.9512 0.9512 0.3087 -26.6208 31.1494)" y="32.6" x="7.8"/>
    <rect id="svg_47" height="2.5" width="0.6" class="st3" transform="matrix(0.4062 -0.9138 0.9138 0.4062 -22.2379 26.6856)" y="29.2" x="9.1"/>
   </g>
  </g>
 </g>
</svg>
