<svg width="85" height="50" xmlns="http://www.w3.org/2000/svg">
 <style type="text/css">.st0{fill:#FF8300;}
	.st1{fill:#00AEE6;}
	.st2{fill:#F5333F;}
	.st3{fill:#4F5659;}</style>
 <g>
  <title>Layer 1</title>
  <g id="svg_1">
   <g id="svg_2">
    <path id="svg_3" d="m63.799999,7.7c-6.5,-4 -14,-6.2 -21.799999,-6.2c-7.599998,0 -14.799999,2 -21.200001,5.8l1.200001,1.8c6,-3.5 12.799999,-5.4 19.900002,-5.4c7.299999,0 14.399998,2 20.5,5.8l1.399998,-1.8z" class="st0"/>
    <path id="svg_4" d="m20.299999,7.7c-2.700001,1.7 -5.3,3.7 -7.6,6c-8.499999,8.500001 -11.899999,20.3 -12.099999,31.000001l2.1,0c0.2,-10.100002 2.9,-20.9 11.5,-29.4c2.2,-2.2 4.7,-4.2 7.3,-5.8l-1.200001,-1.800001z" class="st1"/>
    <path id="svg_5" d="m71.300003,13.7c-2.099998,-2.099999 -4.5,-4 -7,-5.599999l-1.300003,1.7c2.400002,1.5 4.699997,3.3 6.800003,5.4c8,8.000001 11.199997,19.3 11.5,29.399999l2.099998,0c-0.200005,-10.699997 -3.599998,-22.399998 -12.099998,-30.899999z" class="st2"/>
   </g>
   <g id="svg_6">
    <path id="svg_7" d="m42,37.700001c-1.200001,0.700001 -1.700001,2.200001 -1,3.400002s2.200001,1.699997 3.400002,1c1.199997,-0.700001 1.699997,-2.200001 1,-3.400002c-0.700001,-1.200001 -2.200001,-1.600002 -3.400002,-1zm1.700001,3.299999c-0.599998,0.299999 -1.299999,0.099998 -1.599998,-0.5c-0.300003,-0.599998 -0.100002,-1.299999 0.5,-1.599998s1.299999,-0.100002 1.599998,0.5c0.299999,0.599998 0.099998,1.299999 -0.5,1.599998z" class="st3"/>
    <g id="svg_8">
     <path id="svg_9" d="m44.200001,37.700001l-2.200001,-27.1l0,27.1c0.700001,-0.299999 1.5,-0.299999 2.200001,0z" class="st3"/>
     <path id="svg_10" d="m42,42.200001l0,5.299999l1.5,-0.799999l1.5,0.799999l-0.5,-5.5c-0.099998,0 -0.099998,0.099998 -0.200001,0.099998c-0.700001,0.5 -1.599998,0.400002 -2.299999,0.100002z" class="st3"/>
    </g>
   </g>
   <g id="svg_11">
    <rect id="svg_12" height="6.6" width="0.6" class="st3" y="6" x="41.7"/>
    <rect id="svg_13" height="0.6" width="6.6" class="st3" y="42.3" x="4.9"/>
    <rect id="svg_14" height="0.6" width="6.6" class="st3" y="42.3" x="72.4"/>
    <g id="svg_15">
     <rect id="svg_16" height="2.5" width="0.6" class="st3" transform="matrix(0.9945 -0.1045 0.1045 0.9945 -0.5686 4.0429)" y="6.2" x="38"/>
     <rect id="svg_17" height="2.5" width="0.6" class="st3" transform="matrix(0.9782 -0.2076 0.2076 0.9782 -0.922 7.3382)" y="6.8" x="34.2"/>
     <rect id="svg_18" height="2.5" width="0.6" class="st3" transform="matrix(0.9512 -0.3087 0.3087 0.9512 -1.2849 9.9846)" y="7.8" x="30.6"/>
     <rect id="svg_19" height="2.5" width="0.6" class="st3" transform="matrix(0.9138 -0.4062 0.4062 0.9138 -1.8454 12.0213)" y="9.1" x="27.1"/>
    </g>
    <g id="svg_20">
     <rect id="svg_21" height="0.6" width="2.5" class="st3" transform="matrix(0.1055 -0.9944 0.9944 0.1055 33.5395 52.2385)" y="7.2" x="44.6"/>
     <rect id="svg_22" height="0.6" width="2.5" class="st3" transform="matrix(0.2071 -0.9783 0.9783 0.2071 31.3043 54.7475)" y="7.8" x="48.2"/>
     <rect id="svg_23" height="0.6" width="2.5" class="st3" transform="matrix(0.3087 -0.9512 0.9512 0.3087 28.0715 56.7433)" y="8.8" x="51.8"/>
     <rect id="svg_24" height="0.6" width="2.5" class="st3" transform="matrix(0.4063 -0.9137 0.9137 0.4063 24.0758 57.9289)" y="10.1" x="55.4"/>
    </g>
    <g id="svg_25">
     <polygon id="svg_26" points="76.5,39.8 76.4,39.2 78.9,39 79,39.6    " class="st3"/>
     <rect id="svg_27" height="0.6" width="2.5" class="st3" transform="matrix(0.9784 -0.2068 0.2068 0.9784 -5.7144 16.7264)" y="35.4" x="75.9"/>
     <rect id="svg_28" height="0.6" width="2.5" class="st3" transform="matrix(0.9512 -0.3087 0.3087 0.9512 -6.1879 25.0786)" y="31.8" x="74.9"/>
     <rect id="svg_29" height="0.6" width="2.5" class="st3" transform="matrix(0.9139 -0.4059 0.4059 0.9139 -5.1776 32.8124)" y="28.3" x="73.5"/>
    </g>
    <g id="svg_30">
     <rect id="svg_31" height="2.5" width="0.6" class="st3" transform="matrix(0.8148 -0.5798 0.5798 0.8148 -4.1148 14.838)" y="12.6" x="20.9"/>
     <rect id="svg_32" height="2.5" width="0.6" class="st3" transform="matrix(0.7498 -0.6617 0.6617 0.7498 -6.2168 16.1269)" y="15" x="17.9"/>
     <rect id="svg_33" height="2.5" width="0.6" class="st3" transform="matrix(0.6765 -0.7364 0.7364 0.6765 -8.8364 17.5567)" y="17.6" x="15.3"/>
     <rect id="svg_34" height="2.5" width="0.6" class="st3" transform="matrix(0.5962 -0.8029 0.8029 0.5962 -12.1354 19.3537)" y="20.5" x="12.9"/>
    </g>
    <g id="svg_35">
     <rect id="svg_36" height="0.6" width="2.5" class="st3" transform="matrix(0.8144 -0.5803 0.5803 0.8144 0.273 45.4728)" y="22" x="70"/>
     <rect id="svg_37" height="0.6" width="2.5" class="st3" transform="matrix(0.7496 -0.6619 0.6619 0.7496 4.4339 50.4892)" y="19.1" x="67.7"/>
     <rect id="svg_38" height="0.6" width="2.5" class="st3" transform="matrix(0.6762 -0.7368 0.7368 0.6762 9.129 54.2327)" y="16.4" x="65"/>
     <rect id="svg_39" height="0.6" width="2.5" class="st3" transform="matrix(0.596 -0.803 0.803 0.596 14.0776 56.6592)" y="14" x="62.1"/>
     <rect id="svg_40" height="2.5" width="0.6" class="st3" transform="matrix(0.8646 -0.5025 0.5025 0.8646 -2.8061 13.8622)" y="10.9" x="24"/>
     <rect id="svg_41" height="0.6" width="2.5" class="st3" transform="matrix(0.8648 -0.5021 0.5021 0.8648 -2.6903 40.2283)" y="24.8" x="72.1"/>
     <rect id="svg_42" height="2.5" width="0.6" class="st3" transform="matrix(0.506 -0.8625 0.8625 0.506 -15.9131 22.1022)" y="23.7" x="11"/>
     <rect id="svg_43" height="0.6" width="2.5" class="st3" transform="matrix(0.5059 -0.8626 0.8626 0.5059 19.355 58.2186)" y="11.9" x="59.2"/>
    </g>
    <g id="svg_44">
     <polygon id="svg_45" points="7.5,39.8 5,39.6 5.1,39 7.6,39.2    " class="st3"/>
     <rect id="svg_46" height="2.5" width="0.6" class="st3" transform="matrix(0.2077 -0.9782 0.9782 0.2077 -29.4741 34.9711)" y="34.4" x="6.6"/>
     <rect id="svg_47" height="2.5" width="0.6" class="st3" transform="matrix(0.3087 -0.9512 0.9512 0.3087 -25.0339 29.6188)" y="30.8" x="7.6"/>
     <rect id="svg_48" height="2.5" width="0.6" class="st3" transform="matrix(0.4062 -0.9138 0.9138 0.4062 -20.6406 25.3721)" y="27.3" x="8.9"/>
    </g>
   </g>
  </g>
 </g>
</svg>
