<svg width="85" height="50" xmlns="http://www.w3.org/2000/svg">
 <style type="text/css">.st0{fill:#F5831F;}
	.st1{fill:#15ADE4;}
	.st2{fill:#EF3942;}
	.st3{fill:#50575A;}</style>
 <g>
  <title>Layer 1</title>
  <g id="svg_1">
   <path id="svg_2" d="m64,8.6c-6.5,-4 -14,-6.199999 -21.799999,-6.199999c-7.599998,0 -14.799999,2 -21.200001,5.8l1.200001,1.8c6,-3.5 12.799999,-5.4 19.899998,-5.4c7.300003,0 14.400002,2 20.5,5.8l1.400002,-1.8z" class="st0"/>
   <path id="svg_3" d="m20.5,8.6c-2.700001,1.7 -5.3,3.7 -7.6,6c-8.5,8.5 -11.9,20.300001 -12.1,30.999998l2.1,0c0.2,-10.100002 2.9,-20.9 11.5,-29.4c2.200001,-2.2 4.700001,-4.2 7.300001,-5.8l-1.200001,-1.799998z" class="st1"/>
   <path id="svg_4" d="m71.5,14.6c-2.099998,-2.1 -4.5,-4 -7,-5.6l-1.299999,1.700001c2.399998,1.5 4.700001,3.299999 6.799999,5.4c8,8 11.199997,19.300001 11.5,29.4l2.099998,0c-0.199997,-10.700001 -3.599998,-22.4 -12.099998,-30.9z" class="st2"/>
  </g>
  <g id="svg_5">
   <path id="svg_6" d="m41.700001,42.700001c0,1.400002 1,2.599998 2.400002,2.599998s2.599998,-1 2.599998,-2.399998s-1,-2.600002 -2.400002,-2.600002c-1.399998,0 -2.5,1 -2.599998,2.400002zm3.700001,0.200001c0,0.700001 -0.599998,1.200001 -1.200001,1.100002c-0.700001,0 -1.200001,-0.600002 -1.099998,-1.200001c0,-0.700001 0.599998,-1.200001 1.200001,-1.100002c0.599998,0 1.099998,0.5 1.099998,1.200001z" class="st3"/>
   <g id="svg_7">
    <path id="svg_8" d="m42.799999,40.799999l-24.4,-12l23.300001,13.900002c0.099998,-0.799999 0.5,-1.5 1.099998,-1.900002z" class="st3"/>
    <path id="svg_9" d="m45.5,45l4.599998,2.700001l0.100002,-1.700001l1.5,-0.900002l-5,-2.399998c-0.100002,0.099998 0,0.099998 0,0.200001c0,0.899998 -0.600002,1.599998 -1.200001,2.099998z" class="st3"/>
   </g>
  </g>
  <g id="svg_10">
   <rect id="svg_11" height="6.6" width="0.6" class="st3" y="6.9" x="41.9"/>
   <rect id="svg_12" height="0.6" width="6.6" class="st3" y="43.2" x="5.1"/>
   <rect id="svg_13" height="0.6" width="6.6" class="st3" y="43.2" x="72.6"/>
   <g id="svg_14">
    <rect id="svg_15" height="2.5" width="0.6" class="st3" transform="matrix(0.9945 -0.1045 0.1045 0.9945 -0.6607 4.0718)" y="7.1" x="38.2"/>
    <rect id="svg_16" height="2.5" width="0.6" class="st3" transform="matrix(0.9782 -0.2076 0.2076 0.9782 -1.0999 7.4038)" y="7.7" x="34.4"/>
    <rect id="svg_17" height="2.5" width="0.6" class="st3" transform="matrix(0.9512 -0.3087 0.3087 0.9512 -1.5497 10.0952)" y="8.7" x="30.8"/>
    <rect id="svg_18" height="2.5" width="0.6" class="st3" transform="matrix(0.9138 -0.4062 0.4062 0.9138 -2.1842 12.1904)" y="10" x="27.3"/>
   </g>
   <g id="svg_19">
    <rect id="svg_20" height="0.6" width="2.5" class="st3" transform="matrix(0.1055 -0.9944 0.9944 0.1055 32.921 53.2556)" y="8" x="44.8"/>
    <rect id="svg_21" height="0.6" width="2.5" class="st3" transform="matrix(0.2071 -0.9783 0.9783 0.2071 30.6587 55.7088)" y="8.6" x="48.4"/>
    <rect id="svg_22" height="0.6" width="2.5" class="st3" transform="matrix(0.3087 -0.9512 0.9512 0.3087 27.3753 57.6285)" y="9.7" x="52.1"/>
    <rect id="svg_23" height="0.6" width="2.5" class="st3" transform="matrix(0.4063 -0.9137 0.9137 0.4063 23.4227 58.6212)" y="11" x="55.6"/>
   </g>
   <g id="svg_24">
    <polygon id="svg_25" points="76.7,40.7 76.6,40.1 79.1,39.9 79.2,40.5   " class="st3"/>
    <rect id="svg_26" height="0.6" width="2.5" class="st3" transform="matrix(0.9784 -0.2068 0.2068 0.9784 -5.8944 16.793)" y="36.3" x="76.1"/>
    <rect id="svg_27" height="0.6" width="2.5" class="st3" transform="matrix(0.9512 -0.3087 0.3087 0.9512 -6.4551 25.1904)" y="32.7" x="75.1"/>
    <rect id="svg_28" height="0.6" width="2.5" class="st3" transform="matrix(0.9139 -0.4059 0.4059 0.9139 -5.5204 32.9716)" y="29.2" x="73.7"/>
   </g>
   <g id="svg_29">
    <rect id="svg_30" height="2.5" width="0.6" class="st3" transform="matrix(0.8148 -0.5798 0.5798 0.8148 -4.5683 15.1449)" y="13.5" x="21.1"/>
    <rect id="svg_31" height="2.5" width="0.6" class="st3" transform="matrix(0.7498 -0.6617 0.6617 0.7498 -6.7473 16.4758)" y="15.9" x="18.1"/>
    <rect id="svg_32" height="2.5" width="0.6" class="st3" transform="matrix(0.6765 -0.7364 0.7364 0.6765 -9.3979 18.0312)" y="18.5" x="15.5"/>
    <rect id="svg_33" height="2.5" width="0.6" class="st3" transform="matrix(0.5962 -0.8029 0.8029 0.5962 -12.733 19.9116)" y="21.4" x="13.1"/>
   </g>
   <g id="svg_34">
    <rect id="svg_35" height="0.6" width="2.5" class="st3" transform="matrix(0.8144 -0.5803 0.5803 0.8144 -0.1866 45.7749)" y="22.9" x="70.2"/>
    <rect id="svg_36" height="0.6" width="2.5" class="st3" transform="matrix(0.7496 -0.6619 0.6619 0.7496 3.8986 50.8747)" y="20" x="67.9"/>
    <rect id="svg_37" height="0.6" width="2.5" class="st3" transform="matrix(0.6762 -0.7368 0.7368 0.6762 8.5542 54.6661)" y="17.3" x="65.2"/>
    <rect id="svg_38" height="0.6" width="2.5" class="st3" transform="matrix(0.596 -0.803 0.803 0.596 13.4649 57.1686)" y="14.9" x="62.3"/>
    <rect id="svg_39" height="2.5" width="0.6" class="st3" transform="matrix(0.8646 -0.5025 0.5025 0.8646 -3.2334 14.0969)" y="11.8" x="24.2"/>
    <rect id="svg_40" height="0.6" width="2.5" class="st3" transform="matrix(0.8648 -0.5021 0.5021 0.8648 -3.1067 40.4562)" y="25.7" x="72.3"/>
    <rect id="svg_41" height="2.5" width="0.6" class="st3" transform="matrix(0.506 -0.8625 0.8625 0.506 -16.6096 22.7446)" y="24.6" x="11.3"/>
    <rect id="svg_42" height="0.6" width="2.5" class="st3" transform="matrix(0.5059 -0.8626 0.8626 0.5059 18.654 58.8412)" y="12.8" x="59.4"/>
   </g>
   <g id="svg_43">
    <polygon id="svg_44" points="7.7,40.7 5.2,40.5 5.3,39.9 7.8,40.1   " class="st3"/>
    <rect id="svg_45" height="2.5" width="0.6" class="st3" transform="matrix(0.2077 -0.9782 0.9782 0.2077 -30.1273 35.8389)" y="35.3" x="6.8"/>
    <rect id="svg_46" height="2.5" width="0.6" class="st3" transform="matrix(0.3087 -0.9512 0.9512 0.3087 -25.6696 30.4581)" y="31.6" x="7.8"/>
    <rect id="svg_47" height="2.5" width="0.6" class="st3" transform="matrix(0.4062 -0.9138 0.9138 0.4062 -21.3241 26.0918)" y="28.2" x="9.1"/>
   </g>
  </g>
 </g>
</svg>
